<?xml version="1.0" encoding="utf-8"?>
<!-- Generator: Adobe Illustrator 21.1.0, SVG Export Plug-In . SVG Version: 6.00 Build 0)  -->
<svg version="1.1" id="Layer_1" xmlns="http://www.w3.org/2000/svg" xmlns:xlink="http://www.w3.org/1999/xlink" x="0px" y="0px"
	 viewBox="0 0 126 126" style="enable-background:new 0 0 126 126;" xml:space="preserve">
<g>
	<g>
		<path d="M51,54.4c-0.3-0.6-0.6-1-1.1-1.4c-0.5-0.4-1.1-0.6-1.9-0.6c-0.8,0-1.5,0.2-1.9,0.6c-0.5,0.4-0.8,0.8-1.1,1.4
			c-0.3,0.6-0.4,1.2-0.5,1.9c-0.1,0.7-0.1,1.4-0.1,2v2.5h7.2v-2.5c0-0.7,0-1.3-0.1-2C51.4,55.6,51.2,55,51,54.4z M22.9,56.4
			c-0.8-0.9-1.8-1.6-3-2c-1.2-0.5-2.6-0.7-4.1-0.7h-1.6v20.5H16c1.6,0,3-0.3,4.1-0.8c1.2-0.5,2.1-1.3,2.9-2.2c0.8-0.9,1.3-2,1.7-3.3
			c0.4-1.3,0.5-2.6,0.5-4.1c0-1.5-0.2-2.9-0.6-4.1C24.3,58.4,23.7,57.3,22.9,56.4z M114,24H12C5.4,24,0,29.4,0,36v54
			c0,6.6,5.4,12,12,12h102c6.6,0,12-5.4,12-12V36C126,29.4,120.6,24,114,24z M32.1,71.1c-0.7,2.1-1.8,3.9-3.2,5.3s-3.2,2.5-5.3,3.3
			c-2.1,0.8-4.5,1.2-7.2,1.2H6.2V47h12.1c2.6,0,4.8,0.4,6.7,1.3c1.9,0.9,3.4,2.1,4.7,3.6c1.2,1.5,2.1,3.3,2.7,5.4
			c0.6,2.1,0.9,4.3,0.9,6.7C33.2,66.6,32.9,69,32.1,71.1z M59.6,80.8h-8V67h-7.2v13.8h-8V57.6c0-3.8,1-6.7,3-8.6
			c2-1.9,4.9-2.8,8.6-2.8c3.9,0,6.8,1,8.7,2.9c1.9,1.9,2.9,4.7,2.9,8.5V80.8z M89.1,75.8c-0.8,1.4-2,2.5-3.3,3.4
			c-1.4,0.9-2.9,1.5-4.6,1.9c-1.7,0.4-3.4,0.6-5.2,0.6c-0.8,0-1.7-0.1-2.7-0.2c-1-0.1-2.1-0.4-3.2-0.7s-2.1-0.8-3.2-1.4
			c-1-0.6-2-1.3-2.8-2.2c-0.8-0.9-1.5-2-2-3.3c-0.5-1.3-0.8-2.7-0.8-4.4h8c0,2.3,0.7,3.9,2,4.9c1.3,1,3.1,1.5,5.2,1.5
			c0.7,0,1.3-0.1,2-0.2s1.3-0.4,1.8-0.8c0.5-0.3,1-0.8,1.4-1.4s0.5-1.3,0.5-2.1c0-0.8-0.2-1.4-0.5-1.8s-0.9-0.9-1.6-1.2
			c-0.7-0.4-1.6-0.7-2.6-1s-2.3-0.6-3.7-1c-1.3-0.4-2.7-0.8-4-1.2c-1.3-0.4-2.6-0.9-3.6-1.6c-1.1-0.7-2-1.5-2.7-2.6
			c-0.7-1.1-1-2.4-1-4.1c0-1.9,0.4-3.5,1.1-4.8c0.7-1.3,1.7-2.4,2.9-3.3c1.2-0.9,2.6-1.5,4.2-1.9c1.6-0.4,3.2-0.6,4.8-0.6
			c1.8,0,3.5,0.2,5.1,0.6c1.6,0.4,3,1,4.2,1.9c1.2,0.9,2.2,2,3,3.4c0.8,1.4,1.2,3.1,1.3,5.1h-7.6c0.1-0.9-0.1-1.7-0.4-2.3
			c-0.3-0.6-0.8-1.2-1.3-1.6c-0.6-0.4-1.2-0.7-2-0.9S76.4,52,75.6,52c-0.6,0-1.2,0.1-1.8,0.2c-0.6,0.1-1.2,0.3-1.8,0.6
			c-0.5,0.3-1,0.7-1.3,1.1c-0.3,0.5-0.5,1.1-0.5,1.8c0,0.8,0.3,1.5,0.9,2c0.6,0.5,1.4,1,2.3,1.3s2,0.7,3.2,1
			c1.2,0.3,2.4,0.6,3.7,0.9c1.3,0.3,2.5,0.7,3.7,1.2c1.2,0.5,2.2,1,3.2,1.8c0.9,0.7,1.7,1.6,2.2,2.7c0.6,1.1,0.8,2.4,0.8,4
			C90.4,72.6,90,74.4,89.1,75.8z M119.6,80.8h-8V66.3h-11.3v14.5h-8V47h8v13.1h11.3V47h8V80.8z"/>
	</g>
</g>
</svg>
